<svg xmlns="http://www.w3.org/2000/svg" xmlns:xlink="http://www.w3.org/1999/xlink" id="Layer_1" x="0" y="0" enable-background="new 0 0 512 512" version="1.1" viewBox="0 0 512 512" xml:space="preserve"><rect width="9258" height="7438.2" x="-7248.9" y="-3748.2" fill="none"/><rect width="9258" height="7438.2" x="-7248.9" y="-3748.2" fill="none"/><rect width="9258" height="7438.2" x="-7248.9" y="-3748.2" fill="none"/><rect width="52.3" height="84.4" x="156.7" y="267.6" fill-rule="evenodd" clip-rule="evenodd"/><rect width="52.3" height="128" x="229.9" y="224" fill-rule="evenodd" clip-rule="evenodd"/><rect width="52.3" height="177.7" x="303.1" y="174.3" fill-rule="evenodd" clip-rule="evenodd"/><path d="M96,128c0-17.1,15.1-32,32-32h256c17.1,0,32,15.1,32,32v256c0,17.1-15.1,32-32,32H128c-17.1,0-32-15.1-32-32V128z M384,384	V128H128v256H384z"/><path d="M496,96h-32.2c-8.8,0-16,7.2-16,16s7.2,16,16,16H496c8.8,0,16-7.2,16-16S504.8,96,496,96z"/><path d="M496,384h-32.2c-8.8,0-16,7.2-16,16c0,8.8,7.2,16,16,16H496c8.8,0,16-7.2,16-16C512,391.2,504.8,384,496,384z"/><path d="M416,496v-32.2c0-8.8-7.2-16-16-16c-8.8,0-16,7.2-16,16V496c0,8.8,7.2,16,16,16C408.8,512,416,504.8,416,496z"/><path d="M128,496v-32.2c0-8.8-7.2-16-16-16s-16,7.2-16,16V496c0,8.8,7.2,16,16,16S128,504.8,128,496z"/><path d="M15.8,416H48c8.8,0,16-7.2,16-16c0-8.8-7.2-16-16-16H15.8c-8.8,0-16,7.2-16,16C-0.1,408.8,7,416,15.8,416z"/><path d="M15.8,128H48c8.8,0,16-7.2,16-16s-7.2-16-16-16H15.8c-8.8,0-16,7.2-16,16C-0.1,120.8,7,128,15.8,128z"/><path d="M96,16v32.2c0,8.8,7.2,16,16,16s16-7.2,16-16V16c0-8.8-7.2-16-16-16S96,7.2,96,16z"/><path d="M384,16v32.2c0,8.8,7.2,16,16,16c8.8,0,16-7.2,16-16V16c0-8.8-7.2-16-16-16C391.2,0,384,7.2,384,16z"/></svg>