<svg xmlns="http://www.w3.org/2000/svg" xmlns:xlink="http://www.w3.org/1999/xlink" id="Layer_1" x="0" y="0" enable-background="new 0 0 512 512" version="1.1" viewBox="0 0 512 512" xml:space="preserve"><g id="add-circle-outline_1_"><path fill="#010101" d="M183.9,147.1l-36.2,36.2l72.4,72.4l-72.4,72.4l36.2,36.2l72.4-72.4l72.4,72.4l36.2-36.2l-72.4-72.4 l72.4-72.4l-36.2-36.2l-72.4,72.4L183.9,147.1z M75.3,74.7c-99.6,99.6-99.6,262.5,0,362s262.5,99.6,362,0s99.6-262.5,0-362 S174.8-24.9,75.3,74.7z M401.1,400.5c-79.7,79.7-210,79.7-289.6,0s-79.7-210,0-289.6s210-79.7,289.6,0S480.8,320.9,401.1,400.5z"/></g></svg>