<svg xmlns="http://www.w3.org/2000/svg" xmlns:xlink="http://www.w3.org/1999/xlink" id="Layer_1" x="0" y="0" enable-background="new 0 0 512 512" version="1.1" viewBox="0 0 512 512" xml:space="preserve"><g><g><g><polygon id="SVGID_1_" fill="#010101" points="50.7 117.3 255.5 0 460.3 117.3 255.5 236.8"/></g><g><defs><polygon id="SVGID_2_" points="50.7 117.3 255.5 0 460.3 117.3 255.5 236.8"/></defs><clipPath id="SVGID_4_"><use overflow="visible" xlink:href="#SVGID_2_"/></clipPath><g clip-path="url(#SVGID_4_)"><polyline fill="#010101" points="460.3 117.3 255.5 0 50.7 117.3 255.5 236.8 460.3 117.3"/></g></g></g></g><g><g><g><polygon id="SVGID_3_" fill="#010101" points="283.3 509.9 283.3 275.2 488.1 157.9 488.1 392.5"/></g><g><defs><polygon id="SVGID_6_" points="283.3 509.9 283.3 275.2 488.1 157.9 488.1 392.5"/></defs><clipPath id="SVGID_7_"><use overflow="visible" xlink:href="#SVGID_6_"/></clipPath><g clip-path="url(#SVGID_7_)"><polyline fill="#010101" points="488.1 157.9 283.3 275.2 283.3 509.9 488.1 392.5 488.1 157.9"/></g></g></g></g><g><g><g><polygon id="SVGID_5_" fill="#010101" points="23 392.5 23 157.9 227.8 275.2 227.8 512"/></g><g><defs><polygon id="SVGID_8_" points="23 392.5 23 157.9 227.8 275.2 227.8 512"/></defs><clipPath id="SVGID_9_"><use overflow="visible" xlink:href="#SVGID_8_"/></clipPath><g clip-path="url(#SVGID_9_)"><polyline fill="#010101" points="227.8 275.2 23 157.9 23 392.5 227.8 512 227.8 275.2"/></g></g></g></g></svg>