<svg xmlns="http://www.w3.org/2000/svg" xmlns:xlink="http://www.w3.org/1999/xlink" id="Layer_1" x="0" y="0" enable-background="new 0 0 512 512" version="1.1" viewBox="0 0 512 512" xml:space="preserve"><path fill="#010101" d="M383.8,132.8v292.4c0,9.8-8.3,18.1-18.1,18.1H146.3c-9.8,0-18.1-8.3-18.1-18.1V132.8H383.8 M420.6,96H91.4	v329.2c0,30.2,24.7,54.9,54.9,54.9h219.4c30.2,0,54.9-24.7,54.9-54.9V96L420.6,96z"/><polygon fill="#010101" points="448 27.4 352 27.4 324.6 0 187.4 0 160 27.4 64 27.4 64 64 448 64"/><rect width="33.4" height="192" x="190.6" y="192" fill="#010101"/><rect width="32" height="192" x="288" y="192" fill="#010101"/></svg>