<svg xmlns="http://www.w3.org/2000/svg" xmlns:xlink="http://www.w3.org/1999/xlink" id="Layer_1" x="0" y="0" enable-background="new 0 0 512 512" version="1.1" viewBox="0 0 512 512" xml:space="preserve"><style type="text/css">.st0{fill:#010101}</style><g id="check-box-outline_1_"><path d="M416.021,448H63.975V96H224V31.975H56.76c-31.234,0-56.785,25.551-56.785,56.785v366.454 C-0.025,486.449,25.526,512,56.76,512H423.24c31.234,0,56.785-25.551,56.785-56.785V288H416v160H416.021z" class="st0"/></g><polygon points="353.365 0 320 0 320 64 409.875 64 297.186 175.565 288.204 183.903 288.482 184.182 232.679 239.429 272.571 279.322 448 103.893 448 192 512 192 512 190.635 512 0"/></svg>