<svg xmlns="http://www.w3.org/2000/svg" xmlns:xlink="http://www.w3.org/1999/xlink" id="Layer_1" x="0" y="0" enable-background="new 0 0 512 512" version="1.1" viewBox="0 0 512 512" xml:space="preserve"><style type="text/css">.st1{fill:#070606}</style><g><rect width="512" height="32" y="416" class="st1"/><polygon points="64.084 384 95.991 339.759 127.898 384 160 384 111.486 318.919 158.122 256 125.924 256 95.876 298.124 65.827 256 33.744 256 80.384 318.924 32 384" class="st1"/><polygon points="457.246 305.075 430.227 278.056 352.006 356.981 352.006 384 379.026 384" class="st1"/><path d="M477.867,284.447c2.844-2.844,2.844-7.109,0-9.958l-16.356-16.356c-2.844-2.844-7.109-2.844-9.958,0 l-12.802,12.802l27.019,27.019L477.867,284.447z" class="st1"/></g></svg>