<svg xmlns="http://www.w3.org/2000/svg" xmlns:xlink="http://www.w3.org/1999/xlink" id="Layer_1" x="0" y="0" enable-background="new 0 0 512 512" version="1.1" viewBox="0 0 512 512" xml:space="preserve"><g id="visibility_1_"><path fill="#010101" d="M255.7,96C139.4,96,39.5,168.1,0,270.3c39.5,102.3,139.4,174.3,255.7,174.3s216.2-72.1,255.7-174.3 C471.8,168.1,371.9,96,255.7,96z M255.7,386.5c-65.1,0-116.2-51.1-116.2-116.2s51.1-116.2,116.2-116.2s116.2,51.1,116.2,116.2 S320.7,386.5,255.7,386.5z M255.7,200.6c-39.5,0-69.7,30.2-69.7,69.7s30.2,69.7,69.7,69.7s69.7-30.2,69.7-69.7 S295.2,200.6,255.7,200.6z"/></g></svg>