<svg xmlns="http://www.w3.org/2000/svg" xmlns:xlink="http://www.w3.org/1999/xlink" id="Layer_1" x="0" y="0" enable-background="new 0 0 512 512" version="1.1" viewBox="0 0 512 512" xml:space="preserve"><style type="text/css">.st0{fill:#070606}</style><g><path d="M280,0H92.908C76.848,0,64,13.016,64,29.076v326.016C64,371.152,76.848,384,92.908,384h230.184 c16.06,0,28.908-12.848,28.908-28.908V96V72L280,0z M304,321.741c0,7.875-6.384,14.259-14.259,14.259H126.259 c-7.875,0-14.259-6.384-14.259-14.259V96h192V321.741z M256,72V24l48,48H256z"/><polygon points="196 162.342 196 312 220 312 220 162.552 263.008 200.951 278.992 183.049 208.047 119.705 136.311 183.002 152.189 200.998"/></g><path d="M160,479.372V512h276.982c39.101,0,43.018-5.628,43.018-43.018v-341.61h-34.2v352H160z" class="st0"/><path d="M128,416v32.628h244.982C412.083,448.628,416,443,416,405.61V96h-34.2v320H128z" class="st0"/></svg>