<svg xmlns="http://www.w3.org/2000/svg" id="Layer_1" data-name="Layer 1" viewBox="0 0 512 512"><defs><style>.cls-1{fill:#010101}</style></defs><title>bhi_outgoing-charge</title><path d="M352,0H102.54A38.57,38.57,0,0,0,64,38.77V473.46A38.38,38.38,0,0,0,102.54,512H409.46A38.38,38.38,0,0,0,448,473.46V96Zm64,459.09c0,11.55-10.64,20.91-23.77,20.91H119.77C106.64,480,96,470.64,96,459.09V128H416ZM320,96V32l64,64Z" class="cls-1"/><rect width="32" height="160" x="288" y="256" class="cls-1"/><polygon points="320 256 288 256 288 416 320 416 320 256 320 256" class="cls-1"/><rect width="32" height="128" x="128" y="256" class="cls-1"/><polygon points="160 256 128 256 128 384 160 384 160 256 160 256" class="cls-1"/><rect width="192" height="32" x="160" y="256" class="cls-1"/><polygon points="352 256 160 256 160 288 352 288 352 256 352 256" class="cls-1"/><rect width="192" height="32" x="160" y="352" class="cls-1"/><polygon points="352 352 160 352 160 384 352 384 352 352 352 352" class="cls-1"/><rect width="32" height="160" x="352" y="256" class="cls-1"/><polygon points="384 256 352 256 352 416 384 416 384 256 384 256" class="cls-1"/><rect width="68.12" height="4.12" x="301.94" y="429.94" class="cls-1"/><polygon points="384 416 288 416 288 448 384 448 384 416 384 416" class="cls-1"/><rect width="68.11" height="4.12" x="141.94" y="173.94" class="cls-1"/><polygon points="224 160 128 160 128 192 224 192 224 160 224 160" class="cls-1"/><rect width="41.23" height="9.23" x="139.38" y="203.38" class="cls-1"/><polygon points="192 192 128 192 128 224 192 224 192 192 192 192" class="cls-1"/><rect width="41.23" height="9.23" x="331.38" y="171.38" class="cls-1"/><polygon points="384 160 320 160 320 192 384 192 384 160 384 160" class="cls-1"/></svg>