<svg xmlns="http://www.w3.org/2000/svg" xmlns:xlink="http://www.w3.org/1999/xlink" id="Layer_1" x="0" y="0" enable-background="new 0 0 512 512" version="1.1" viewBox="0 0 512 512" xml:space="preserve"><path fill-rule="evenodd" d="M416,464.6H96V96h32v64h256V96h32V464.6z M256.6,47.3c12.9,0,23.4,10.4,23.4,23.2	s-10.6,23.2-23.4,23.2c-12.9,0-23.4-10.4-23.4-23.2S243.8,47.3,256.6,47.3z M420.8,47.3h-98C312.9,20.4,287.1,1,256.6,1	c-30.5,0-56.3,19.5-66.1,46.4h-98c-25.8,0-46.9,20.9-46.9,46.4v370.9c0,25.5,21.1,46.4,46.9,46.4h328.3c25.8,0,46.9-20.9,46.9-46.4	V93.7C467.7,68.2,446.6,47.3,420.8,47.3z" clip-rule="evenodd"/><rect width="9258" height="7438.2" x="-6704.9" y="-3748.2" fill="none"/><rect width="51.2" height="64" x="128" y="384" fill-rule="evenodd" clip-rule="evenodd"/><rect width="9258" height="7438.2" x="-6704.9" y="-3748.2" fill="none"/><rect width="51.2" height="160" x="196.3" y="288" fill-rule="evenodd" clip-rule="evenodd"/><rect width="51.2" height="128" x="264.5" y="320" fill-rule="evenodd" clip-rule="evenodd"/><rect width="9258" height="7438.2" x="-6704.9" y="-3748.2" fill="none"/><rect width="51.2" height="224" x="332.8" y="224" fill-rule="evenodd" clip-rule="evenodd"/></svg>