<svg xmlns="http://www.w3.org/2000/svg" xmlns:xlink="http://www.w3.org/1999/xlink" id="Layer_1" x="0" y="0" enable-background="new 0 0 512 512" version="1.1" viewBox="0 0 512 512" xml:space="preserve"><g><rect width="69.1" height="64" x="444" y="384" fill="#010101"/><rect width="138.3" height="64" x="374.8" y="224" fill="#010101"/><rect width="193.1" height="64" x="320" y="64" fill="#010101"/><path fill="#010101" d="M267.2,299.1h-17l-5.9-5.9c20.9-24.3,33.6-55.8,33.6-90.3c0-76.7-62.2-138.9-138.9-138.9S0,126.2,0,202.9 s62.2,138.9,138.9,138.9c34.5,0,66-12.6,90.3-33.4l5.9,5.9v16.9L342,437.8l31.8-31.8L267.2,299.1z M138.9,299.1 c-53.1,0-96.2-43.1-96.2-96.2c0-53.1,43.1-96.2,96.2-96.2c53.1,0,96.2,43.1,96.2,96.2C235.1,256,192,299.1,138.9,299.1z"/></g></svg>