<svg xmlns="http://www.w3.org/2000/svg" id="Layer_1" data-name="Layer 1" viewBox="0 0 512 512"><defs><style>.cls-1,.cls-2{fill:#010101}.cls-2{fill-rule:evenodd}</style></defs><title>bhi_tearsheet</title><rect width="246.47" height="50.66" x="132.76" y="108.97" class="cls-1"/><rect width="246.47" height="50.66" x="132.76" y="204.23" class="cls-1"/><rect width="246.47" height="50.66" x="132.76" y="299.48" class="cls-1"/><path d="M32,32V475.08l46.19,35.56,35.56-35.56,35.56,35.56,35.56-35.56,35.56,35.56L256,475.08l35.56,35.56,35.56-35.56,35.56,35.56,35.56-35.56,35.56,35.56L480,475.08V32c0-14.36-17.64-32-32-32H64C49.64,0,32,17.64,32,32ZM416,429.25l-17.75-22.68L364,440.82l-1.31,1.31-1.31-1.31-34.26-34.25-34.25,34.26-1.31,1.31-1.31-1.31L256,406.57l-34.26,34.26-1.31,1.31-1.31-1.31-34.25-34.26-34.25,34.25-1.31,1.31L148,440.82l-34.26-34.26L96,429.25V64H416V429.25Z" class="cls-2"/></svg>