<svg xmlns="http://www.w3.org/2000/svg" xmlns:xlink="http://www.w3.org/1999/xlink" id="Layer_1" x="0" y="0" enable-background="new 0 0 512 512" version="1.1" viewBox="0 0 512 512" xml:space="preserve"><g id="group_1_"><path fill="#010101" d="M347.6,224c37.2,0,64-28.9,64-64s-28.9-64-64-64s-64,28.9-64,64S312.5,224,347.6,224z M162.7,224 c37.2,0,64-28.9,64-64s-28.9-64-64-64s-66.1,26.8-66.1,64S125.5,224,162.7,224z M162.8,275.7c-53.4,0-162.6,29-162.6,82.4V416 h325.1v-57.9C325.4,304.7,216.2,275.7,162.8,275.7z M347.6,275.7c-6.7,0-13.4,0-22.3,2.2c29,17.8,46.8,46.8,46.8,80.2V416h140.3 v-57.9C510.2,304.7,401.1,275.7,347.6,275.7z"/></g></svg>